<svg width="95" height="92" viewBox="0 0 95 92" fill="none" xmlns="http://www.w3.org/2000/svg">
<rect width="95" height="92" rx="46" fill="#D5DF7E"/>
<path d="M19.48 64C19.08 64 18.88 63.8 18.88 63.4V37.36C18.88 36.992 19.016 36.672 19.288 36.4L23.272 32.392C23.544 32.136 23.864 32.008 24.232 32.008H29.728C30.096 32.008 30.416 32.136 30.688 32.392L34.72 36.448H35.848L39.88 32.392C40.152 32.136 40.472 32.008 40.84 32.008H46.312C46.696 32.008 47.016 32.136 47.272 32.392L51.28 36.4C51.552 36.672 51.688 36.992 51.688 37.36V63.4C51.688 63.8 51.488 64 51.088 64H44.272C43.872 64 43.672 63.8 43.672 63.4V38.392H39.28V63.4C39.28 63.8 39.08 64 38.68 64H31.888C31.488 64 31.288 63.8 31.288 63.4V38.392H26.872V63.4C26.872 63.8 26.672 64 26.272 64H19.48ZM58.0581 64C57.6581 64 57.4581 63.8 57.4581 63.4V32.608C57.4581 32.208 57.6581 32.008 58.0581 32.008H71.3301C71.7141 32.008 72.0341 32.136 72.2901 32.392L77.0901 37.192C77.3621 37.464 77.4981 37.784 77.4981 38.152V46.432C77.4981 46.816 77.3621 47.136 77.0901 47.392L72.2901 52.192C72.0341 52.464 71.7141 52.6 71.3301 52.6H65.4501V63.4C65.4501 63.8 65.2501 64 64.8501 64H58.0581ZM67.2501 46.072C68.5781 46.072 69.4821 45.808 69.9621 45.28C70.4581 44.752 70.7061 43.752 70.7061 42.28C70.7061 40.808 70.4581 39.808 69.9621 39.28C69.4821 38.752 68.5781 38.488 67.2501 38.488C65.9381 38.488 65.0341 38.752 64.5381 39.28C64.0581 39.808 63.8181 40.808 63.8181 42.28C63.8181 43.752 64.0581 44.752 64.5381 45.28C65.0341 45.808 65.9381 46.072 67.2501 46.072Z" fill="#C4381D"/>
</svg>
